<?xml version="1.0" encoding="utf-8"?>
<!-- Uploaded to: SVG Repo, www.svgrepo.com, Generator: SVG Repo Mixer Tools -->
<svg width="800px" height="800px" viewBox="0 0 24 24" fill="none" xmlns="http://www.w3.org/2000/svg">
<g id="style=stroke">
<g id="arrow-long-left">
<path id="vector (Stroke)" fill-rule="evenodd" clip-rule="evenodd" d="M22.0358 12C22.0358 12.4142 21.7 12.75 21.2858 12.75L2.78577 12.75C2.37155 12.75 2.03577 12.4142 2.03577 12C2.03577 11.5858 2.37155 11.25 2.78577 11.25L21.2858 11.25C21.7 11.25 22.0358 11.5858 22.0358 12Z" fill="#000000"/>
<path id="vector (Stroke)_2" fill-rule="evenodd" clip-rule="evenodd" d="M9.8161 4.46967C10.109 4.76256 10.109 5.23744 9.8161 5.53033L3.5232 11.8232C3.42557 11.9209 3.42557 12.0791 3.5232 12.1768L9.8161 18.4697C10.109 18.7626 10.109 19.2374 9.8161 19.5303C9.5232 19.8232 9.04833 19.8232 8.75544 19.5303L2.46254 13.2374C1.77912 12.554 1.77913 11.446 2.46254 10.7626L8.75544 4.46967C9.04833 4.17678 9.5232 4.17678 9.8161 4.46967Z" fill="#000000"/>
</g>
</g>
</svg>